<?xml version="1.0" standalone="no"?>
<!DOCTYPE svg PUBLIC "-//W3C//DTD SVG 20010904//EN"
 "http://www.w3.org/TR/2001/REC-SVG-20010904/DTD/svg10.dtd">
<svg version="1.0" xmlns="http://www.w3.org/2000/svg"
 width="302.000000pt" height="312.000000pt" viewBox="0 0 302.000000 312.000000"
 preserveAspectRatio="xMidYMid meet">

<g transform="translate(0.000000,312.000000) scale(0.100000,-0.100000)"
fill="#000000" stroke="none">
<path d="M1316 3104 c-3 -9 -6 -17 -6 -19 0 -7 102 -66 107 -62 2 3 -19 19
-46 36 -28 17 -51 33 -51 36 0 12 21 3 70 -30 29 -20 55 -34 57 -31 4 3 -50
41 -113 79 -7 4 -15 0 -18 -9z"/>
<path d="M1515 2970 c-3 -5 -2 -10 4 -10 5 0 13 5 16 10 3 6 2 10 -4 10 -5 0
-13 -4 -16 -10z"/>
<path d="M1150 2875 c0 -67 3 -79 24 -100 28 -28 22 -43 -7 -18 -11 10 -17 12
-13 6 10 -18 -9 -16 -24 2 -7 9 -15 13 -18 10 -3 -2 7 -14 21 -26 20 -15 27
-30 27 -55 0 -33 -6 -38 -40 -35 -8 1 -3 -8 13 -20 27 -21 28 -24 26 -111 l-1
-89 -21 18 c-12 10 -4 -3 16 -29 71 -88 70 -92 65 213 -3 270 -4 271 -27 290
-13 10 -27 19 -32 19 -5 0 -9 -34 -9 -75z m40 -230 c15 -18 -1 -20 -18 -3 -9
9 -12 9 -12 -1 0 -7 -5 -9 -11 -5 -8 4 -7 9 2 15 19 12 25 11 39 -6z m4 -190
c16 -12 17 -15 4 -15 -8 0 -21 7 -28 15 -16 19 -1 19 24 0z"/>
<path d="M1510 2935 c7 -9 15 -13 17 -11 7 7 -7 26 -19 26 -6 0 -6 -6 2 -15z"/>
<path d="M1420 2796 c0 -8 23 -29 51 -47 28 -18 57 -39 65 -46 8 -8 14 -10 14
-4 0 6 -27 29 -61 52 -33 22 -58 43 -55 47 4 3 27 -9 52 -27 26 -18 48 -30 50
-28 6 6 -90 67 -104 67 -7 0 -12 -6 -12 -14z"/>
<path d="M420 2691 c-5 -11 -10 -22 -10 -25 0 -3 159 -121 177 -131 1 0 -10
-25 -24 -55 -31 -65 -41 -171 -21 -210 19 -34 75 -70 112 -70 45 0 126 41 176
89 24 22 47 41 51 41 4 0 39 -25 79 -56 40 -30 75 -53 78 -49 4 3 2 9 -4 13
-17 11 -249 175 -253 179 -3 2 0 7 5 13 5 5 43 -17 98 -56 48 -36 90 -63 92
-61 3 3 -13 18 -35 34 -35 26 -38 30 -25 47 29 40 56 147 51 199 -4 42 -10 56
-41 84 -29 27 -44 33 -81 33 -56 0 -126 -34 -174 -84 -19 -20 -39 -36 -44 -36
-5 0 -46 27 -91 60 -46 33 -88 60 -94 60 -6 0 -16 -9 -22 -19z m113 -60 c76
-54 86 -64 68 -76 -15 -9 -180 116 -174 131 6 16 4 17 106 -55z m231 -163 c-5
-8 -2 -9 9 -5 16 6 16 4 0 -20 -9 -14 -19 -21 -21 -14 -2 6 -8 9 -13 5 -15 -9
-10 13 7 30 18 19 28 21 18 4z"/>
<path d="M1616 2681 c-4 -7 -5 -15 -2 -18 9 -9 19 4 14 18 -4 11 -6 11 -12 0z"/>
<path d="M1495 2490 c-3 -5 15 -24 42 -42 26 -18 58 -44 71 -58 20 -20 23 -21
14 -5 -6 11 -36 38 -66 59 -31 21 -54 41 -51 44 3 3 26 -9 51 -27 26 -18 48
-30 51 -28 4 5 -86 67 -98 67 -4 0 -11 -4 -14 -10z"/>
<path d="M1680 2360 c0 -5 5 -10 10 -10 6 0 10 5 10 10 0 6 -4 10 -10 10 -5 0
-10 -4 -10 -10z"/>
<path d="M1017 2329 c7 -7 15 -10 18 -7 3 3 -2 9 -12 12 -14 6 -15 5 -6 -5z"/>
<path d="M2583 2308 c-19 -24 -22 -47 -8 -58 10 -8 14 -8 17 1 2 7 32 -7 77
-35 67 -43 101 -52 101 -27 0 6 -34 33 -75 61 -41 28 -75 55 -75 60 0 14 -26
12 -37 -2z m96 -59 c70 -45 96 -69 75 -69 -12 0 -164 103 -164 111 0 14 3 12
89 -42z"/>
<path d="M987 2303 c-4 -3 -7 -11 -7 -17 0 -6 5 -5 12 2 6 6 9 14 7 17 -3 3
-9 2 -12 -2z"/>
<path d="M1111 2254 c0 -11 3 -14 6 -6 3 7 2 16 -1 19 -3 4 -6 -2 -5 -13z"/>
<path d="M1080 2250 c-8 -5 -12 -11 -10 -13 3 -2 171 -122 373 -267 227 -162
365 -266 359 -272 -6 -6 -40 13 -90 49 -44 32 -201 145 -348 252 -148 106
-274 199 -280 207 -12 15 -24 8 -24 -13 0 -8 4 -11 10 -8 5 3 61 -31 122 -77
62 -46 143 -106 181 -133 46 -34 64 -52 57 -59 -7 -7 -16 -7 -28 2 -64 47
-166 67 -212 42 -28 -15 -112 27 -104 52 3 10 -8 45 -25 79 -17 34 -29 65 -26
69 3 4 -2 13 -10 20 -8 7 -15 9 -15 5 0 -21 26 -92 38 -105 11 -10 11 -15 3
-18 -9 -3 -7 -11 4 -29 15 -23 15 -26 -2 -39 -17 -13 -17 -13 4 -14 17 0 71
-19 101 -36 2 -1 -8 -13 -21 -26 -13 -13 -26 -30 -29 -38 -5 -15 -37 -1 -77
34 -16 14 -25 17 -28 9 -2 -7 -10 -10 -17 -7 -24 9 -13 -26 20 -64 l32 -38
-46 -52 c-28 -29 -65 -58 -90 -68 -23 -9 -48 -24 -55 -33 -6 -10 -38 -30 -71
-44 -57 -26 -99 -35 -261 -56 -62 -8 -101 -21 -170 -56 -90 -45 -114 -63 -170
-125 -16 -19 -1 -8 35 23 74 66 206 135 265 139 40 3 40 3 54 -44 9 -29 20
-48 29 -48 11 0 12 -3 3 -14 -8 -9 -8 -21 -2 -37 5 -13 10 -18 10 -10 1 8 4
11 8 7 4 -4 18 10 31 31 13 21 21 29 17 18 -4 -11 -10 -30 -13 -43 -2 -12 -13
-28 -23 -35 -15 -11 -16 -19 -9 -52 11 -48 9 -52 -40 -66 -22 -7 -40 -15 -40
-19 0 -3 -31 -30 -70 -59 -68 -52 -90 -57 -90 -22 0 23 -19 41 -44 41 -20 0
-20 0 0 15 17 15 16 15 -11 2 -16 -8 -51 -20 -77 -27 -27 -7 -48 -18 -48 -24
0 -6 -4 -5 -9 3 -6 9 -11 10 -15 3 -4 -6 2 -16 13 -22 16 -8 23 -6 33 9 32 45
122 39 148 -9 16 -29 13 -35 -31 -65 -22 -16 -47 -40 -54 -54 -8 -14 -14 -20
-15 -13 0 7 -4 11 -9 7 -5 -3 -17 5 -25 17 -19 27 -21 42 -3 33 6 -4 4 0 -7 9
-10 8 -16 22 -13 30 4 10 1 13 -9 9 -16 -6 -18 -15 -4 -29 8 -8 15 -31 19 -64
5 -35 285 -296 324 -302 38 -6 79 10 139 57 58 45 69 51 67 38 -4 -22 4 -95 8
-80 2 9 9 14 15 11 10 -7 28 13 28 31 0 6 -4 4 -9 -4 -5 -8 -14 -10 -21 -6
-19 12 -6 138 21 207 12 32 26 55 30 52 5 -3 9 6 9 20 0 14 11 56 25 93 14 39
19 60 10 49 -8 -10 -26 -50 -41 -88 -14 -38 -28 -67 -30 -65 -2 2 9 41 24 86
28 82 29 84 72 98 37 13 51 13 80 3 72 -25 80 -35 80 -98 0 -78 -21 -150 -74
-255 -25 -49 -39 -84 -31 -77 27 23 78 122 105 206 l27 84 258 200 c147 115
264 199 272 196 10 -4 10 1 -2 24 -18 36 -45 38 -71 8 l-19 -23 23 19 c25 22
36 19 19 -5 -13 -18 -63 -47 -53 -31 3 6 -18 2 -47 -8 -28 -10 -80 -20 -115
-23 l-63 -5 35 43 c34 42 35 42 10 37 -15 -3 -21 -8 -15 -12 18 -11 -25 -43
-49 -37 -11 3 -17 1 -14 -4 8 -14 -6 -49 -19 -49 -7 0 -18 -9 -25 -21 -9 -13
-20 -19 -32 -16 -14 3 -17 0 -13 -12 3 -10 -3 -7 -16 8 -12 13 -21 29 -21 35
0 7 -37 43 -82 81 -46 37 -74 58 -64 47 21 -24 16 -28 -17 -11 -21 12 -21 12
9 35 22 18 25 24 12 24 -10 0 -18 4 -18 8 0 5 -7 9 -15 9 -11 0 -12 -4 -4 -14
7 -8 8 -13 1 -13 -5 0 -14 6 -20 13 -15 18 63 70 96 64 17 -3 20 -1 11 9 -8 9
-5 18 10 33 12 12 25 21 31 21 5 0 7 6 4 14 -6 15 40 56 62 56 8 0 14 5 14 11
0 6 -7 9 -15 5 -8 -3 -15 0 -15 6 0 15 -57 -50 -65 -74 -4 -10 -12 -18 -19
-18 -8 0 -20 -8 -27 -17 -12 -14 -12 -16 0 -8 10 5 12 4 7 -4 -4 -6 -11 -9
-15 -7 -4 3 -30 -13 -58 -34 -42 -31 -54 -36 -63 -25 -8 10 -5 18 16 34 15 12
33 21 41 21 7 0 53 38 101 84 48 46 97 88 109 95 37 19 50 12 16 -10 -18 -12
-33 -22 -33 -24 0 -1 21 2 46 8 34 8 51 8 65 -1 11 -7 25 -10 30 -6 8 4 7 9
-2 15 -10 6 -9 9 6 14 11 4 37 13 59 21 l38 15 -35 -33 c-20 -18 -52 -42 -73
-53 -21 -11 -40 -26 -42 -34 -3 -7 5 -4 17 8 25 25 29 26 70 5 19 -10 30 -21
27 -30 -3 -8 0 -11 10 -7 13 5 18 -6 15 -34 -1 -6 3 -14 9 -18 6 -4 7 1 4 12
-3 10 11 0 32 -22 44 -45 52 -81 22 -91 -11 -3 -25 -1 -31 5 -6 6 -16 11 -22
11 -5 0 -1 -7 9 -15 20 -15 20 -15 0 -31 -10 -9 -3 -6 17 5 43 25 132 45 164
37 13 -3 38 -18 57 -33 31 -26 32 -26 13 -3 -48 57 -49 59 -23 57 13 -2 33 -8
45 -15 36 -20 73 -32 73 -23 0 4 -18 16 -41 26 -22 10 -48 30 -58 44 -17 25
-54 121 -46 121 2 0 20 -27 40 -60 34 -56 59 -84 35 -41 -14 27 -13 36 3 22 8
-6 17 -8 20 -4 10 10 47 -28 68 -69 18 -36 17 -43 -5 -39 -5 1 -4 -5 4 -13 14
-18 25 -22 15 -6 -3 6 -1 10 4 10 14 0 14 -13 0 -27 -7 -7 0 -19 27 -41 20
-17 45 -43 54 -58 16 -23 16 -29 4 -41 -8 -8 -14 -31 -14 -51 l-1 -37 -20 25
c-29 36 -131 140 -137 140 -3 0 -14 8 -25 18 -11 9 -5 -4 14 -30 19 -26 39
-47 46 -47 12 -1 113 -110 113 -123 0 -4 -6 -8 -12 -8 -10 -1 58 -40 67 -40 1
0 0 11 -3 25 -2 15 2 33 10 43 22 26 33 46 20 38 -6 -3 -15 1 -20 11 -8 14
-12 8 -17 -30 -4 -26 -11 -47 -15 -47 -16 0 -17 26 -3 65 8 22 15 52 15 68 -1
15 3 25 7 23 4 -3 6 21 3 52 -3 44 -11 66 -33 94 -16 20 -29 41 -29 46 0 18
43 63 55 58 7 -2 22 9 34 25 12 16 26 29 32 29 6 0 64 -39 130 -86 l119 -85
-21 -30 c-12 -17 -27 -28 -34 -25 -7 2 -43 26 -80 53 -43 31 -61 49 -51 51 9
2 16 7 16 10 -1 9 -21 34 -41 50 -14 10 -18 10 -23 -4 -4 -12 -2 -15 9 -10 9
3 15 0 15 -10 0 -8 4 -13 9 -9 5 3 12 1 15 -3 3 -5 -10 -16 -28 -25 -31 -14
-35 -14 -65 4 -17 10 -31 27 -31 36 -1 17 -1 17 -11 0 -6 -10 -9 -19 -7 -21
96 -62 117 -80 107 -93 -7 -8 -10 -33 -6 -66 5 -48 -2 -112 -18 -164 -4 -13
-3 -23 3 -23 14 0 34 53 29 81 -2 13 -2 18 0 12 7 -20 17 -16 73 29 29 23 51
38 49 33 -3 -6 -20 -41 -39 -80 -24 -50 -35 -88 -38 -131 -4 -58 -3 -62 28
-87 17 -15 41 -27 53 -27 37 0 103 39 171 101 l66 60 156 -112 157 -112 19 22
c10 13 18 29 18 35 0 9 -185 148 -302 227 -5 3 7 37 26 75 66 130 68 211 5
248 -42 25 -85 15 -150 -34 l-52 -39 -56 40 c-31 23 -89 63 -128 91 -64 44
-73 54 -73 82 -1 38 -11 51 -77 100 -45 32 -53 43 -53 69 0 47 -32 93 -75 107
-26 8 -40 9 -47 2 -8 -8 -1 -10 21 -10 20 1 40 -7 57 -23 24 -23 25 -28 19
-89 -16 -150 -57 -172 -170 -89 -79 57 -87 65 -62 56 16 -6 16 -5 2 17 -14 22
-14 24 16 49 18 15 36 24 41 21 4 -3 8 -2 8 3 0 4 4 14 9 22 8 12 12 12 24 2
9 -7 18 -8 21 -2 8 13 -4 41 -17 41 -7 0 -7 -4 1 -12 20 -20 14 -33 -7 -14
-15 14 -20 14 -29 3 -7 -8 -9 -17 -5 -20 5 -6 -18 -11 -38 -9 -11 2 -57 -52
-61 -70 -2 -13 -33 5 -137 80 -73 53 -163 117 -200 142 -36 25 -65 51 -63 58
2 14 1 14 -18 2z m-6 -206 c3 -8 2 -12 -4 -9 -6 3 -10 10 -10 16 0 14 7 11 14
-7z m321 -144 c3 -6 0 -10 -9 -10 -8 0 -23 -3 -33 -7 -16 -6 -16 -5 -5 10 8 9
11 21 7 28 -6 8 -2 8 13 0 12 -6 24 -16 27 -21z m54 -2 c-10 -7 -8 -8 7 -3 15
4 39 -7 83 -40 60 -44 75 -60 47 -49 -11 4 -13 0 -9 -15 6 -25 -4 -27 -29 -4
-19 17 -25 39 -8 28 6 -3 10 -1 10 4 0 6 -7 11 -15 11 -8 0 -31 11 -51 25 -20
14 -43 25 -50 25 -8 0 -14 4 -14 8 0 14 23 31 33 25 5 -3 3 -10 -4 -15z m-374
-38 c10 -16 -12 -12 -29 6 -9 8 -16 18 -16 20 0 7 38 -15 45 -26z m354 -96
c14 -12 -19 -1 -35 12 -18 14 -18 14 6 3 14 -6 27 -13 29 -15z m-44 -14 c8
-13 -5 -13 -25 0 -13 8 -13 10 2 10 9 0 20 -4 23 -10z m85 -5 c7 -8 8 -15 2
-15 -5 0 -15 7 -22 15 -7 8 -8 15 -2 15 5 0 15 -7 22 -15z m-16 -20 c15 -11
16 -15 5 -15 -8 0 -24 -7 -35 -16 -10 -8 -14 -13 -7 -10 14 8 27 -10 14 -19
-6 -3 -24 7 -42 23 -27 25 -30 30 -15 35 9 4 15 3 12 -2 -3 -5 2 -12 11 -15
10 -4 14 -4 11 0 -6 6 11 33 22 33 3 0 14 -6 24 -14z m4 -104 c10 -6 8 -10 -9
-14 -24 -7 -39 -1 -39 14 0 11 30 12 48 0z m75 -8 c-7 -2 -21 -2 -30 0 -10 3
-4 5 12 5 17 0 24 -2 18 -5z m530 -87 c16 -12 24 -23 18 -29 -6 -6 -41 13 -90
49 -53 37 -77 60 -69 65 7 5 33 -7 63 -29 27 -20 62 -45 78 -56z m238 27 c-11
-21 -27 -47 -36 -58 -14 -18 -14 -16 1 15 20 41 44 80 50 80 3 0 -4 -17 -15
-37z m-101 -123 c0 -5 -4 -10 -10 -10 -5 0 -10 5 -10 10 0 6 5 10 10 10 6 0
10 -4 10 -10z m80 -58 c25 -19 101 -74 170 -124 69 -49 135 -98 147 -108 12
-10 24 -16 27 -13 3 4 6 2 6 -4 0 -6 -7 -16 -15 -23 -8 -7 -15 -8 -15 -3 0 11
-185 143 -200 143 -6 0 -13 7 -16 15 -4 8 -13 15 -20 15 -8 0 -17 7 -20 15 -4
8 -10 12 -15 9 -5 -3 -9 -1 -9 4 0 7 -60 52 -119 89 -2 1 2 10 9 18 7 9 16 12
19 8 3 -5 26 -23 51 -41z m-129 -65 c-10 -9 -11 -8 -5 6 3 10 9 15 12 12 3 -3
0 -11 -7 -18z m-1377 -142 c-4 -8 -8 -15 -10 -15 -2 0 -4 7 -4 15 0 8 4 15 10
15 5 0 7 -7 4 -15z m-534 -185 c0 -5 -2 -10 -4 -10 -3 0 -8 5 -11 10 -3 6 -1
10 4 10 6 0 11 -4 11 -10z"/>
<path d="M2226 2217 c-2 -18 -8 -60 -13 -95 -7 -49 -6 -65 4 -74 23 -19 6 -20
-24 -2 l-28 18 20 -23 c12 -13 18 -34 17 -50 -2 -21 3 -32 23 -45 14 -9 23
-22 19 -27 -3 -6 -12 -2 -21 10 -8 12 -20 21 -26 21 -7 0 -3 -7 7 -15 11 -8
17 -17 14 -20 -3 -3 -17 4 -31 16 -15 11 -27 16 -27 11 0 -6 7 -13 16 -16 14
-6 16 -18 11 -81 -5 -71 -4 -75 20 -93 17 -13 22 -21 15 -26 -7 -4 -12 -3 -12
3 0 6 -10 15 -22 22 -22 11 -22 10 -6 -7 16 -16 16 -18 1 -29 -14 -10 -12 -15
16 -34 18 -13 34 -21 37 -18 3 3 16 105 29 228 13 123 27 245 30 270 5 45 4
48 -29 67 l-35 21 -5 -32z m24 -167 c14 -11 19 -20 13 -20 -7 0 -22 9 -33 20
-26 26 -13 26 20 0z"/>
<path d="M990 2078 c0 -37 20 -98 32 -98 6 0 7 7 3 18 -4 9 -12 36 -17 60 -11
46 -18 54 -18 20z"/>
<path d="M920 2003 c0 -75 13 -89 61 -69 27 12 31 16 17 21 -10 4 -20 22 -24
41 -3 19 -11 34 -16 34 -6 0 -7 -8 -3 -17 14 -38 17 -71 5 -78 -18 -11 -22 0
-27 62 -5 77 -13 81 -13 6z"/>
<path d="M2637 2022 c-20 -22 -22 -42 -4 -42 6 -1 46 -23 87 -50 55 -36 78
-46 87 -38 18 14 12 20 -66 72 -39 25 -74 53 -79 61 -7 14 -10 14 -25 -3z m90
-59 c40 -27 73 -54 73 -61 0 -13 -159 87 -160 101 0 13 14 7 87 -40z"/>
<path d="M1675 2010 c3 -5 8 -10 11 -10 2 0 4 5 4 10 0 6 -5 10 -11 10 -5 0
-7 -4 -4 -10z"/>
<path d="M2140 1750 c0 -5 10 -15 23 -21 22 -12 22 -12 3 10 -21 23 -26 26
-26 11z"/>
<path d="M1129 1729 l-24 -20 30 17 c39 24 40 24 28 24 -6 0 -21 -9 -34 -21z"/>
<path d="M2662 1717 c-17 -21 -18 -39 -1 -42 9 -2 47 -23 84 -48 38 -26 72
-44 77 -41 20 13 3 34 -62 78 -38 25 -70 51 -70 56 0 14 -16 12 -28 -3z m96
-65 c35 -24 61 -47 58 -50 -8 -7 -155 91 -149 100 5 10 10 7 91 -50z"/>
<path d="M1877 1703 c-12 -12 -7 -22 8 -17 8 4 15 10 15 15 0 11 -14 12 -23 2z"/>
<path d="M1066 1665 c-11 -8 -15 -15 -9 -15 6 0 16 7 23 15 16 19 11 19 -14 0z"/>
<path d="M995 1610 c-3 -6 1 -7 9 -4 18 7 21 14 7 14 -6 0 -13 -4 -16 -10z"/>
<path d="M1580 1606 c0 -2 8 -10 18 -17 15 -13 16 -12 3 4 -13 16 -21 21 -21
13z"/>
<path d="M1078 1553 c7 -3 16 -2 19 1 4 3 -2 6 -13 5 -11 0 -14 -3 -6 -6z"/>
<path d="M1275 1550 c3 -5 8 -10 11 -10 2 0 4 5 4 10 0 6 -5 10 -11 10 -5 0
-7 -4 -4 -10z"/>
<path d="M1594 1418 c10 -15 32 -37 49 -51 30 -22 68 -46 57 -36 -89 84 -120
110 -106 87z"/>
<path d="M464 1414 c-18 -14 -18 -15 4 -4 12 6 22 13 22 15 0 8 -5 6 -26 -11z"/>
<path d="M219 1389 c-23 -19 -23 -20 -2 -10 12 6 25 16 28 21 10 16 -1 12 -26
-11z"/>
<path d="M1700 1353 c11 -23 28 -44 36 -47 9 -3 4 10 -13 32 -42 57 -47 60
-23 15z"/>
<path d="M174 1324 l-39 -36 48 33 c26 18 47 34 47 36 0 11 -22 -2 -56 -33z"/>
<path d="M335 1299 c-4 -5 -28 -23 -53 -39 -26 -16 -44 -30 -39 -30 12 0 81
45 96 64 7 9 11 16 8 16 -3 0 -9 -5 -12 -11z"/>
<path d="M379 1273 c-13 -17 -13 -17 6 -3 11 8 22 16 24 17 2 2 0 3 -6 3 -6 0
-17 -8 -24 -17z"/>
<path d="M1880 1260 c0 -5 5 -10 10 -10 6 0 10 5 10 10 0 6 -4 10 -10 10 -5 0
-10 -4 -10 -10z"/>
<path d="M178 1223 c12 -2 30 -2 40 0 9 3 -1 5 -23 4 -22 0 -30 -2 -17 -4z"/>
<path d="M214 875 c-10 -8 -31 -15 -45 -15 -28 0 -79 -34 -68 -45 8 -7 124 49
134 65 9 14 2 13 -21 -5z"/>
<path d="M771 844 c0 -11 3 -14 6 -6 3 7 2 16 -1 19 -3 4 -6 -2 -5 -13z"/>
<path d="M75 779 c-22 -10 -34 -19 -27 -19 15 0 72 28 72 35 0 6 3 7 -45 -16z"/>
<path d="M878 699 c-3 -17 -1 -32 4 -35 5 -3 8 -11 6 -17 -1 -7 4 -38 12 -69
11 -49 11 -65 -4 -122 -18 -75 -20 -100 -6 -91 14 9 12 -8 -2 -25 -11 -12 -10
-12 4 -1 16 11 17 9 13 -26 -2 -21 0 -65 4 -98 6 -43 8 -1 8 145 0 141 -4 217
-13 243 -7 20 -12 37 -10 37 13 0 49 -92 49 -125 0 -52 12 -20 22 57 8 67 -10
114 -54 139 -29 17 -29 17 -33 -12z m62 -34 c7 -9 10 -18 7 -22 -4 -3 -1 -15
5 -27 10 -20 9 -19 -15 3 -14 13 -25 32 -24 42 2 23 10 24 27 4z"/>
<path d="M920 650 c0 -5 5 -10 11 -10 5 0 7 5 4 10 -3 6 -8 10 -11 10 -2 0 -4
-4 -4 -10z"/>
<path d="M711 700 c0 -8 4 -22 9 -30 12 -18 12 -2 0 25 -6 13 -9 15 -9 5z"/>
<path d="M866 610 c4 -14 11 -41 15 -60 l7 -35 0 35 c1 19 -5 46 -14 60 l-15
25 7 -25z"/>
<path d="M750 605 c0 -11 39 -117 46 -124 2 -2 4 9 4 25 0 26 -49 123 -50 99z"/>
<path d="M861 449 c-13 -32 -22 -62 -19 -64 3 -3 16 22 28 55 30 79 21 87 -9
9z"/>
<path d="M820 468 c0 -23 3 -29 9 -19 8 12 4 51 -5 51 -2 0 -4 -15 -4 -32z"/>
<path d="M812 370 c0 -19 2 -27 5 -17 2 9 2 25 0 35 -3 9 -5 1 -5 -18z"/>
<path d="M1469 328 c-10 -32 -11 -70 -4 -143 3 -33 5 -78 5 -100 -1 -56 14
-35 34 47 21 86 20 100 -4 130 -13 18 -16 28 -8 36 11 11 3 32 -13 32 -5 0 -9
-1 -10 -2z"/>
<path d="M802 270 c0 -14 2 -19 5 -12 2 6 2 18 0 25 -3 6 -5 1 -5 -13z"/>
<path d="M786 184 c-4 -14 -5 -28 -3 -31 3 -2 8 8 11 23 4 14 5 28 3 31 -3 2
-8 -8 -11 -23z"/>
<path d="M1853 172 c-1 -22 0 -24 9 -8 6 10 6 22 2 26 -5 5 -10 -3 -11 -18z"/>
<path d="M1980 192 c0 -4 9 -13 20 -20 19 -12 20 -11 8 8 -13 20 -28 27 -28
12z"/>
<path d="M2042 180 c0 -14 2 -19 5 -12 2 6 2 18 0 25 -3 6 -5 1 -5 -13z"/>
<path d="M2076 191 c-6 -10 10 -25 38 -35 12 -4 16 -12 11 -24 -5 -13 -3 -14
6 -5 14 14 4 32 -28 44 -13 5 -21 13 -18 19 3 5 4 10 1 10 -3 0 -7 -4 -10 -9z"/>
<path d="M2245 189 c-4 -6 -5 -12 -2 -15 2 -3 7 2 10 11 7 17 1 20 -8 4z"/>
<path d="M2302 178 c7 -15 15 -23 17 -17 2 6 -4 18 -13 27 -15 15 -15 15 -4
-10z"/>
<path d="M2341 163 c-1 -24 1 -43 3 -43 8 0 12 48 5 66 -5 13 -8 7 -8 -23z"/>
<path d="M2430 190 c0 -5 5 -10 10 -10 6 0 10 5 10 10 0 6 -4 10 -10 10 -5 0
-10 -4 -10 -10z"/>
<path d="M2500 189 c0 -5 5 -7 10 -4 6 3 10 8 10 11 0 2 -4 4 -10 4 -5 0 -10
-5 -10 -11z"/>
<path d="M2703 165 c0 -22 2 -30 4 -17 2 12 2 30 0 40 -3 9 -5 -1 -4 -23z"/>
<path d="M2840 191 c0 -5 7 -12 16 -15 14 -5 15 -4 4 9 -14 17 -20 19 -20 6z"/>
<path d="M2935 191 c-5 -10 2 -16 43 -38 12 -7 20 -8 16 -2 -3 6 -17 14 -31
20 -13 5 -21 13 -18 19 3 5 4 10 1 10 -3 0 -7 -4 -11 -9z"/>
<path d="M2642 155 c0 -16 2 -22 5 -12 2 9 2 23 0 30 -3 6 -5 -1 -5 -18z"/>
<path d="M1897 151 c-4 -17 -3 -21 5 -13 5 5 8 16 6 23 -3 8 -7 3 -11 -10z"/>
<path d="M1982 145 c0 -16 2 -22 5 -12 2 9 2 23 0 30 -3 6 -5 -1 -5 -18z"/>
<path d="M1935 150 c3 -5 8 -10 11 -10 2 0 4 5 4 10 0 6 -5 10 -11 10 -5 0 -7
-4 -4 -10z"/>
<path d="M2432 140 c0 -14 2 -19 5 -12 2 6 2 18 0 25 -3 6 -5 1 -5 -13z"/>
<path d="M2546 143 c-6 -14 -5 -15 5 -6 7 7 10 15 7 18 -3 3 -9 -2 -12 -12z"/>
<path d="M2590 155 c0 -5 5 -17 10 -25 5 -8 10 -10 10 -5 0 6 -5 17 -10 25 -5
8 -10 11 -10 5z"/>
<path d="M772 115 c0 -16 2 -22 5 -12 2 9 2 23 0 30 -3 6 -5 -1 -5 -18z"/>
<path d="M806 99 c-10 -30 -13 -69 -6 -69 4 0 10 17 12 38 5 38 2 55 -6 31z"/>
<path d="M881 94 c0 -11 3 -14 6 -6 3 7 2 16 -1 19 -3 4 -6 -2 -5 -13z"/>
<path d="M1475 30 c3 -5 11 -10 16 -10 6 0 7 5 4 10 -3 6 -11 10 -16 10 -6 0
-7 -4 -4 -10z"/>
</g>
</svg>
